<?xml version="1.0" encoding="utf-8"?>
<!-- Generator: Adobe Illustrator 15.0.0, SVG Export Plug-In . SVG Version: 6.00 Build 0)  -->
<!DOCTYPE svg PUBLIC "-//W3C//DTD SVG 1.1//EN" "http://www.w3.org/Graphics/SVG/1.1/DTD/svg11.dtd">
<svg version="1.1" xmlns="http://www.w3.org/2000/svg" xmlns:xlink="http://www.w3.org/1999/xlink" x="0px" y="0px"
	 width="104.125px" height="37.625px" viewBox="-1.5 -8.352 104.125 37.625" enable-background="new -1.5 -8.352 104.125 37.625"
	 xml:space="preserve">
<g id="Layer_1">
</g>
<g id="Layer_2">
	<path d="M9.75,19.898v7h14v-7H9.75z M13.541,25.898c-2.5,0-2.5,0-2.5-2.5s0-2.5,2.5-2.5s2.5,0,2.5,2.5S16.041,25.898,13.541,25.898
		z M19.895,25.898c-2.5,0-2.5,0-2.5-2.5s0-2.5,2.5-2.5s2.5,0,2.5,2.5S22.395,25.898,19.895,25.898z"/>
	<path d="M73.416,19.898v7h14v-7H73.416z M77.208,25.898c-2.5,0-2.5,0-2.5-2.5s0-2.5,2.5-2.5s2.5,0,2.5,2.5
		S79.708,25.898,77.208,25.898z M83.561,25.898c-2.5,0-2.5,0-2.5-2.5s0-2.5,2.5-2.5s2.5,0,2.5,2.5S86.061,25.898,83.561,25.898z"/>
	<g>
		<polygon fill="none" points="57.634,1.866 57.634,10.764 75.125,10.764 70.623,1.866 		"/>
		<polygon fill="none" points="35.21,10.765 55.768,10.765 55.768,1.867 41.932,1.867 		"/>
		<path d="M99.212,10.535L79.778,8.898L75.278,0H40.965l-6.982,9.243L8.132-7.248L8.078-7.285L8.077-7.283L8.074-7.285L8.02-7.2
			L6.026-4.283l0.619,0.423L8.26-6.222l25.16,16.048l-30.965,1.63L0,24.445h7.105c0.487-4.883,4.606-8.694,9.617-8.694
			c5.01,0,9.129,3.812,9.616,8.694h44.283c0.487-4.883,4.606-8.694,9.616-8.694c4.988,0,9.093,3.778,9.61,8.628l8.75-1.264
			C98.599,23.116,101.291,13.016,99.212,10.535z M41.932,1.867h13.836v7.12l-1.585-0.834l-2.752-0.015l-2.374-0.662l-1.502-2.054
			h-4.898l-2.202-1.6L41.932,1.867z M35.21,10.765l5.082-6.727l2.278,1.655h4.849l1.449,1.981l0.027,0.039l2.482,0.691l2.71,0.005
			l1.682,0.885v1.471H35.21z M57.634,10.764V1.866h12.988l4.502,8.898H57.634z"/>
	</g>
</g>
</svg>
